<svg width="90" height="90" viewBox="0 0 90 90" fill="none" xmlns="http://www.w3.org/2000/svg">
<rect width="90" height="90" rx="45" fill="#D1C286"/>
<path d="M61.0156 30.0078H28.9844C27.8906 30.0078 26.9531 30.3984 26.1719 31.1797C25.3906 31.9609 25 32.8984 25 33.9922V53.9922C25 55.0859 25.3906 56.0299 26.1719 56.8242C26.9531 57.6185 27.8906 58.0156 28.9844 58.0156H61.0156C62.1094 58.0156 63.0469 57.6185 63.8281 56.8242C64.6094 56.0299 65 55.0859 65 53.9922V33.9922C65 32.8984 64.6094 31.9609 63.8281 31.1797C63.0469 30.3984 62.1094 30.0078 61.0156 30.0078ZM61.0156 53.9922H28.9844V42H61.0156V53.9922ZM61.0156 35.9844H28.9844V33.9922H61.0156V35.9844ZM33.0078 46.2188V47.3906H34.2188V46.2188H33.0078ZM40.1953 48.6016V49.8125H42.6172V48.6016H43.7891V47.3906H45V46.1797H42.6172V47.3906H41.4062V48.6016H40.1953ZM45 49.8125V48.6016H43.7891V49.8125H45ZM38.9844 49.8125V48.6016H36.6016V49.8125H38.9844ZM40.1953 47.3906H41.4062V46.1797H38.9844V48.6016H40.1953V47.3906ZM35.3906 48.6016H36.6016V47.3906H37.8125V46.1797H35.3906V47.3906H34.2188V48.6016H33.0078V49.8125H35.3906V48.6016Z" fill="white"/>
</svg>
